<svg width="20" height="20" viewBox="0 0 20 20" fill="none" xmlns="http://www.w3.org/2000/svg">
<path fill-rule="evenodd" clip-rule="evenodd" d="M5.5 17C7.433 17 9 15.433 9 13.5C9 11.567 7.433 10 5.5 10C3.567 10 2 11.567 2 13.5C2 15.433 3.567 17 5.5 17ZM14.5 17C16.433 17 18 15.433 18 13.5C18 11.567 16.433 10 14.5 10C12.567 10 11 11.567 11 13.5C11 15.433 12.567 17 14.5 17Z" fill="url(#paint0_linear_4032_21492)"/>
<circle cx="9.5" cy="5.5" r="3.5" fill="url(#paint1_linear_4032_21492)"/>
<defs>
<linearGradient id="paint0_linear_4032_21492" x1="2" y1="13.5" x2="18" y2="13.5" gradientUnits="userSpaceOnUse">
<stop stop-color="#1C2544" stop-opacity="0.05"/>
<stop offset="1" stop-color="#1C2544" stop-opacity="0.13"/>
</linearGradient>
<linearGradient id="paint1_linear_4032_21492" x1="6" y1="5.5" x2="13" y2="5.5" gradientUnits="userSpaceOnUse">
<stop stop-color="#1C2544" stop-opacity="0.15"/>
<stop offset="1" stop-color="#1C2544" stop-opacity="0.2"/>
<stop offset="1" stop-color="#1C2544" stop-opacity="0.2"/>
</linearGradient>
</defs>
</svg>
