<svg width="20" height="20" viewBox="0 0 20 20" fill="none" xmlns="http://www.w3.org/2000/svg">
<g opacity="0.4">
<path fill-rule="evenodd" clip-rule="evenodd" d="M9.5 16.0625C13.1244 16.0625 16.0625 13.1244 16.0625 9.5C16.0625 5.87563 13.1244 2.9375 9.5 2.9375C5.87563 2.9375 2.9375 5.87563 2.9375 9.5C2.9375 13.1244 5.87563 16.0625 9.5 16.0625ZM9.5 17C13.6421 17 17 13.6421 17 9.5C17 5.35786 13.6421 2 9.5 2C5.35786 2 2 5.35786 2 9.5C2 13.6421 5.35786 17 9.5 17Z" fill="#0A0E12"/>
<path opacity="0.6" fill-rule="evenodd" clip-rule="evenodd" d="M11.4151 15.7787C10.8092 15.9632 10.1662 16.0625 9.5 16.0625C8.83378 16.0625 8.19075 15.9632 7.58489 15.7787C6.6915 14.5248 6.08196 12.4191 6.00765 10H2.95626C2.94383 9.83496 2.9375 9.66822 2.9375 9.5C2.9375 9.33178 2.94383 9.16504 2.95626 9H6.00765C6.08196 6.58095 6.6915 4.47517 7.58489 3.22134C8.19075 3.03678 8.83378 2.9375 9.5 2.9375C10.1662 2.9375 10.8092 3.03677 11.4151 3.22134C12.3085 4.47517 12.918 6.58095 12.9923 9H16.0437C16.0562 9.16504 16.0625 9.33178 16.0625 9.5C16.0625 9.66822 16.0562 9.83496 16.0437 10H12.9923C12.918 12.4191 12.3085 14.5248 11.4151 15.7787ZM11.0687 14.3804C11.5794 13.286 11.9345 11.7514 11.9919 10H7.00815C7.06546 11.7514 7.42061 13.286 7.93131 14.3804C8.52797 15.659 9.15281 16 9.5 16C9.84719 16 10.472 15.659 11.0687 14.3804ZM7.93131 4.61958C7.42061 5.71395 7.06546 7.24863 7.00815 9H11.9919C11.9345 7.24863 11.5794 5.71395 11.0687 4.61958C10.472 3.34104 9.84719 3 9.5 3C9.15281 3 8.52797 3.34104 7.93131 4.61958Z" fill="#141B24" fill-opacity="0.4"/>
</g>
</svg>
